<?xml version="1.0" standalone="no"?>
<!DOCTYPE svg PUBLIC "-//W3C//DTD SVG 20010904//EN"
 "http://www.w3.org/TR/2001/REC-SVG-20010904/DTD/svg10.dtd">
<svg version="1.0" xmlns="http://www.w3.org/2000/svg"
 width="434.000000pt" height="329.000000pt" viewBox="0 0 434.000000 329.000000"
 preserveAspectRatio="xMidYMid meet">
<metadata>
Created by potrace 1.16, written by Peter Selinger 2001-2019
</metadata>
<g transform="translate(0.000000,329.000000) scale(0.100000,-0.100000)"
fill="#000000" stroke="none">
<path d="M0 1660 l0 -1630 41 0 c36 0 40 -2 29 -15 -11 -13 124 -15 1209 -15
886 0 1220 3 1215 11 -5 8 -1 8 13 0 14 -7 307 -10 927 -11 l906 0 0 1645 0
1645 -297 0 -298 -1 -32 -77 c-18 -43 -33 -88 -33 -100 0 -28 -21 -73 -31 -66
-5 3 -5 -5 -1 -16 8 -22 44 -45 157 -98 41 -20 60 -34 59 -46 -1 -12 2 -14 10
-7 9 8 26 -3 59 -37 46 -47 54 -72 16 -51 -17 8 -19 6 -19 -20 0 -16 5 -33 10
-36 6 -3 10 -11 10 -16 0 -6 -5 -7 -12 -3 -6 4 -8 3 -4 -4 3 -6 2 -13 -3 -17
-6 -3 -15 5 -22 17 -14 27 -31 45 -41 44 -4 -1 -19 14 -33 33 -14 19 -25 31
-25 25 0 -15 28 -102 41 -126 13 -25 -103 92 -128 129 -8 13 -19 20 -24 17
-12 -7 -37 18 -32 33 2 6 -1 15 -8 19 -8 4 -9 3 -5 -4 4 -7 4 -17 1 -22 -9
-15 -44 7 -55 33 -7 18 -9 19 -9 4 -1 -11 -6 -15 -12 -11 -8 5 -8 1 0 -13 8
-16 6 -25 -10 -42 l-21 -22 38 -42 c21 -23 40 -44 44 -47 13 -11 71 -111 83
-142 13 -35 -3 -17 -30 33 -16 29 -33 61 -39 71 -14 23 -92 98 -103 98 -4 0
-13 -11 -19 -25 -10 -21 -9 -32 3 -55 9 -17 19 -30 23 -30 9 0 34 -55 31 -72
-5 -39 3 -78 22 -99 11 -13 28 -37 36 -54 15 -29 15 -30 -3 -10 -95 101 -161
190 -156 207 1 4 -43 5 -98 3 -94 -5 -143 3 -138 23 1 4 -4 27 -11 52 -7 25
-15 53 -16 62 -2 10 -7 23 -11 29 -4 7 -8 19 -8 28 -1 9 -8 36 -16 61 -7 25
-14 52 -15 60 -6 38 -56 166 -79 201 -19 29 -22 39 -12 39 8 0 21 -7 30 -15
22 -22 133 -20 159 3 11 9 17 12 14 6 -4 -7 3 -14 17 -18 22 -5 72 -70 218
-278 31 -45 48 -59 48 -39 0 12 -86 138 -132 193 -22 27 -37 48 -33 48 4 0 -4
9 -19 21 -14 11 -24 25 -21 29 3 5 -11 18 -32 29 -32 17 -34 20 -15 21 13 0
21 3 19 8 -3 4 13 21 34 37 21 17 38 33 39 38 0 4 -126 7 -281 7 l-281 -1 7
-22 c4 -12 10 -51 14 -85 l7 -64 -27 30 c-15 17 -30 27 -34 24 -4 -4 -5 -2 -3
3 1 6 -3 34 -11 63 l-15 52 -68 0 c-44 0 -67 -4 -63 -10 14 -23 -8 -30 -35
-10 -28 20 -41 20 -1319 20 l-1291 0 0 -1630z m3059 1513 c5 -10 21 -76 35
-148 15 -71 35 -157 46 -190 10 -33 21 -73 24 -90 l7 -30 -36 40 c-53 59 -93
118 -126 185 -16 32 -35 62 -41 66 -9 6 -9 3 0 -9 14 -16 8 -42 -8 -32 -14 9
-32 103 -26 132 4 16 15 43 26 61 16 26 26 32 55 32 22 0 37 -6 44 -17z
m-1769 -65 c0 -5 20 -8 44 -8 61 0 81 -21 104 -110 26 -95 36 -157 25 -147 -4
5 -8 12 -9 15 -4 34 -42 84 -56 76 -5 -3 -1 -15 8 -25 14 -16 15 -22 4 -32
-10 -9 -11 -9 -6 1 8 13 -27 52 -45 52 -5 0 -18 17 -29 38 -25 47 -55 82 -70
82 -7 0 -10 7 -6 15 3 9 0 18 -8 21 -11 4 -11 10 -3 28 9 19 14 22 29 12 10
-6 18 -14 18 -18z m2330 -270 c0 -4 7 -8 15 -8 8 0 15 -5 15 -11 0 -5 5 -7 12
-3 6 4 8 3 4 -4 -3 -6 -2 -13 4 -17 5 -3 10 0 10 7 1 7 8 0 16 -15 8 -15 19
-25 23 -23 20 13 107 -93 117 -143 1 -8 8 -17 14 -21 13 -8 32 -72 23 -79 -3
-3 -8 0 -10 7 -3 6 -11 12 -19 12 -8 0 -14 -6 -14 -12 -1 -21 -21 21 -24 48
-2 14 -9 30 -17 35 -8 5 -10 9 -5 9 5 0 3 7 -4 15 -7 8 -17 12 -23 8 -5 -3 -7
-1 -3 5 3 6 2 13 -4 17 -5 3 -10 18 -10 33 0 15 -5 34 -11 42 -8 12 -9 10 -4
-7 7 -27 -11 -40 -20 -13 -3 11 -10 20 -15 20 -5 0 -7 7 -4 15 4 9 0 15 -10
15 -9 0 -16 5 -16 11 0 5 -4 7 -10 4 -5 -3 -10 -1 -10 4 0 6 -7 11 -15 11 -9
0 -18 7 -21 15 -4 8 -10 12 -15 9 -9 -5 -13 9 -4 18 8 8 35 5 35 -4z m365
-169 c4 -11 11 -16 18 -13 7 4 9 4 5 -1 -10 -11 21 -67 32 -60 6 3 8 0 5 -7
-7 -18 126 -281 145 -287 13 -4 13 -2 1 13 -12 14 -12 16 2 10 15 -6 19 18 4
32 -3 4 -4 11 0 17 3 5 16 -12 28 -39 21 -45 21 -52 8 -77 -10 -21 -19 -26
-34 -22 -26 9 -72 54 -86 85 -19 44 -41 104 -53 143 -6 20 -16 37 -21 37 -6 0
-7 5 -4 10 8 13 -71 150 -85 150 -11 0 -14 33 -3 43 9 9 31 -11 38 -34z
m-1711 -285 c22 -24 37 -53 44 -88 11 -52 25 -161 22 -172 -2 -10 23 -23 32
-18 14 9 8 43 -9 53 -15 9 -16 10 -2 11 9 0 21 -11 27 -25 15 -33 -8 -98 -31
-89 -11 4 -17 -6 -22 -38 -8 -49 -24 -84 -26 -58 -5 66 -3 108 4 103 23 -14
-17 40 -48 64 -19 16 -35 31 -35 35 0 3 14 9 31 13 28 6 29 8 12 20 -17 13
-17 14 3 9 17 -4 21 -1 20 15 -1 27 -31 61 -54 61 -10 0 -28 7 -40 16 -30 21
-25 68 13 111 16 19 23 16 59 -23z m1959 -279 c25 -57 31 -88 36 -170 5 -82
-1 -272 -7 -227 -1 7 -7 10 -12 7 -7 -4 -7 -12 0 -25 5 -10 10 -29 9 -42 -1
-23 -1 -23 -9 2 -8 25 -8 25 -10 -5 -1 -16 -6 -39 -11 -50 -7 -16 -9 -14 -6
13 2 22 -1 32 -10 32 -17 0 -16 5 3 36 9 13 18 48 20 77 2 29 7 68 12 87 5 24
4 43 -6 62 -7 15 -11 32 -7 38 3 5 2 10 -2 10 -5 0 -9 8 -10 18 -2 27 -9 51
-16 58 -4 4 -7 30 -8 58 -1 28 -5 62 -9 76 -7 21 -8 18 -9 -18 -1 -26 -5 -41
-11 -37 -12 8 -3 84 13 104 10 12 13 11 15 -10 2 -13 18 -55 35 -94z m-1455
-548 c12 -11 22 -28 22 -36 0 -9 9 -31 21 -50 11 -18 22 -49 25 -69 2 -19 8
-40 13 -46 5 -6 9 -32 9 -57 -1 -28 5 -56 15 -70 21 -29 22 -53 1 -69 -8 -8
-14 -9 -13 -4 2 5 -1 19 -5 32 -7 22 -8 22 -22 5 -12 -17 -13 -17 -14 -1 0 11
-5 15 -15 12 -23 -9 -18 10 10 40 14 15 23 31 20 36 -3 5 -1 11 5 15 5 3 10
10 10 16 0 5 -8 1 -18 -8 -10 -10 -14 -21 -9 -24 5 -3 2 -9 -6 -12 -10 -4 -14
0 -12 11 2 9 4 17 5 17 1 0 4 23 6 50 2 28 6 57 9 65 3 9 -1 7 -10 -4 -8 -11
-15 -24 -15 -29 0 -4 -4 -6 -9 -3 -5 4 -8 21 -8 39 2 24 -4 36 -23 49 -14 10
-20 18 -15 18 6 0 4 4 -4 9 -10 7 -11 13 -2 27 6 11 11 15 11 11 0 -5 5 -5 10
-2 19 12 0 24 -24 15 -18 -6 -23 -5 -23 8 -3 47 10 49 55 9z m972 -221 c0 -7
14 -31 31 -52 31 -39 31 -39 8 -42 -12 -2 -33 -11 -46 -19 -13 -8 -23 -12 -23
-8 0 4 -9 -3 -20 -16 -18 -21 -19 -22 -14 -4 6 19 6 19 -9 -1 -12 -16 -25 -20
-52 -19 -24 2 -35 -1 -32 -9 3 -6 -6 -17 -19 -23 -35 -16 -29 -3 21 45 25 24
43 48 39 53 -3 5 2 9 10 9 9 0 13 6 10 14 -3 7 10 30 29 50 35 36 67 47 67 22z
m63 -146 c5 -19 16 -44 25 -54 16 -18 16 -19 -15 -13 -21 4 -37 2 -46 -7 -9
-9 -19 -11 -28 -5 -18 12 -32 11 -24 0 3 -6 -3 -9 -12 -9 -10 1 -38 -2 -63 -7
l-45 -7 24 26 c14 14 26 24 28 23 1 -2 26 18 54 45 60 59 88 61 102 8z m-2104
-40 c10 -5 30 -36 45 -70 21 -47 28 -77 28 -133 l1 -73 64 -24 c65 -25 110
-61 99 -79 -5 -7 -30 -2 -74 14 -38 14 -78 26 -90 28 -12 2 -25 7 -29 11 -5 4
-22 14 -40 21 -35 15 -66 55 -62 82 1 10 -1 25 -4 33 -29 75 -43 127 -40 140
6 19 54 60 71 60 7 0 21 -4 31 -10z m1207 -37 c0 -16 6 -74 13 -131 11 -85 11
-116 0 -182 -12 -76 -28 -92 -29 -28 0 22 -9 31 -46 50 -25 12 -60 38 -77 58
-17 19 -33 34 -36 33 -3 -2 -21 2 -39 8 -18 6 -51 9 -73 7 -22 -2 -39 1 -39 7
0 5 -4 4 -9 -4 -5 -8 -11 -9 -15 -3 -4 7 -17 7 -36 2 -42 -12 -103 -15 -118
-6 -7 4 -12 2 -12 -6 0 -8 -3 -9 -8 -3 -4 6 -50 11 -102 11 -173 3 -305 18
-324 37 -22 21 -33 21 199 0 l190 -17 155 28 c181 32 268 55 274 73 3 7 1 13
-5 13 -6 0 -7 5 -4 10 3 6 1 10 -4 10 -16 0 -9 24 9 32 23 10 89 9 110 -2 16
-8 18 -8 14 5 -3 8 -10 12 -15 9 -5 -3 -9 0 -9 5 0 6 8 11 19 11 14 0 18 -7
17 -27z m293 -44 c17 -6 31 -15 31 -19 0 -5 9 -12 20 -15 11 -4 18 -10 15 -15
-3 -5 1 -11 7 -13 9 -4 8 -6 -2 -6 -8 0 -26 8 -40 19 -14 11 -32 20 -40 20
-13 0 -13 1 0 10 8 5 10 10 4 10 -7 0 -20 -8 -31 -17 -10 -10 -12 -13 -4 -8
12 8 13 6 8 -9 -6 -16 -5 -17 8 -6 17 15 50 5 39 -11 -4 -8 -3 -9 4 -5 7 4 12
2 12 -3 0 -6 7 -11 15 -11 8 0 14 -3 13 -7 -4 -19 15 -103 24 -103 5 0 7 -4 3
-9 -6 -10 -43 -7 -54 5 -3 3 -6 11 -6 17 0 7 -9 12 -20 12 -11 0 -19 6 -17 13
1 8 -1 11 -6 8 -5 -3 -18 1 -28 9 -16 13 -17 16 -4 25 13 9 13 10 0 11 -8 1
-21 0 -29 -1 -9 -1 -12 4 -8 14 8 20 -2 20 -24 0 -11 -10 -19 -12 -24 -5 -3 6
6 16 20 23 18 8 22 14 13 20 -10 6 -8 8 4 8 12 0 15 5 11 17 -5 13 -2 15 15
11 12 -4 20 -2 17 2 -3 5 1 11 7 13 7 3 13 6 14 6 1 1 15 -4 33 -10z m629
-225 c-13 -13 -14 -23 -6 -48 5 -17 13 -137 17 -266 7 -214 9 -239 29 -277 12
-23 22 -48 21 -55 0 -9 -2 -8 -6 2 -4 8 -12 21 -20 28 -11 11 -13 1 -13 -63 0
-42 -4 -74 -9 -71 -4 3 -6 28 -3 56 3 30 0 55 -7 64 -16 20 -27 116 -13 125 5
3 8 18 5 33 -3 15 -9 25 -14 22 -5 -3 -6 2 -3 11 4 8 0 23 -7 32 -8 9 -9 14
-2 10 12 -7 12 30 0 50 -3 5 -7 26 -9 46 -1 21 -6 37 -11 37 -5 0 -7 7 -3 15
3 8 1 15 -5 15 -6 0 -8 4 -5 9 4 5 2 21 -4 35 -6 18 -6 26 1 26 6 0 7 5 4 10
-4 6 -1 18 7 27 9 12 9 15 1 9 -7 -4 -13 -3 -13 3 0 5 -3 17 -7 27 -4 12 -3
15 5 10 7 -4 12 -1 12 7 0 8 7 20 15 27 9 7 14 19 11 25 -6 16 13 35 33 35 13
0 13 -2 -1 -16z"/>
</g>
</svg>
